<svg
  fill="#000000"
  xmlns="http://www.w3.org/2000/svg"
  xmlns:xlink="http://www.w3.org/1999/xlink"
  version="1.1"
  x="0px"
  y="0px"
  viewBox="0 0 100 100"
>
  <path
    d="M92.5,43.75H70V27.5h7.5c1.381,0,2.5-1.119,2.5-2.5V15c0-1.381-1.119-2.5-2.5-2.5h-70C6.119,12.5,5,13.619,5,15v10  c0,1.381,1.119,2.5,2.5,2.5H15v45H7.5C6.119,72.5,5,73.619,5,75v10c0,1.381,1.119,2.5,2.5,2.5h70c1.381,0,2.5-1.119,2.5-2.5V75  c0-1.381-1.119-2.5-2.5-2.5H70V56.25h22.5c1.381,0,2.5-1.119,2.5-2.5v-7.5C95,44.869,93.881,43.75,92.5,43.75z M90,51.25H60v-2.5h30  V51.25z M75,82.5h-5v-5h5V82.5z M10,77.5h5v5h-5V77.5z M20,77.5h5v5h-5V77.5z M30,77.5h5v5h-5V77.5z M40,77.5h5v5h-5V77.5z M50,77.5  h5v5h-5V77.5z M60,77.5h5v5h-5V77.5z M20,72.5v-45h45v16.25h-5V42.5c0-0.663-0.263-1.299-0.732-1.768l-7.5-7.5  C51.299,32.763,50.663,32.5,50,32.5H35c-0.663,0-1.299,0.263-1.768,0.732l-7.5,7.5C25.263,41.201,25,41.837,25,42.5v15  c0,0.663,0.263,1.299,0.732,1.768l7.5,7.5C33.701,67.237,34.337,67.5,35,67.5h15c0.663,0,1.299-0.263,1.768-0.732l7.5-7.5  C59.737,58.799,60,58.163,60,57.5v-1.25h5V72.5H20z M10,17.5h5v5h-5V17.5z M75,22.5h-5v-5h5V22.5z M65,22.5h-5v-5h5V22.5z M55,22.5  h-5v-5h5V22.5z M45,22.5h-5v-5h5V22.5z M35,22.5h-5v-5h5V22.5z M25,22.5h-5v-5h5V22.5z M55,56.464L48.964,62.5H36.036L30,56.464  V43.536l6.036-6.036h12.929L55,43.536V56.464z"
  ></path>
  <path
    d="M35,50c0,4.136,3.364,7.5,7.5,7.5S50,54.136,50,50s-3.364-7.5-7.5-7.5S35,45.864,35,50z M42.5,47.5  c1.378,0,2.5,1.122,2.5,2.5s-1.122,2.5-2.5,2.5S40,51.378,40,50S41.122,47.5,42.5,47.5z"
  ></path>
</svg>
